<svg viewBox="0 0 485.06 125.21" xmlns="http://www.w3.org/2000/svg"><path d="m19.02 66.86h-6.68v18.11h-12.34v-51.19h20.14c6.07 0 10.82 1.35 14.24 4.04s5.13 6.5 5.13 11.41c0 3.56-.72 6.51-2.16 8.85s-3.7 4.24-6.77 5.69l10.69 20.67v.53h-13.22l-9.04-18.11zm-6.68-9.49h7.8c2.34 0 4.11-.62 5.29-1.85s1.78-2.95 1.78-5.16-.6-3.94-1.79-5.2-2.95-1.89-5.27-1.89h-7.8v14.1z" fill="#1d1d1b"/><path d="m78.71 63.23h-19.41v12.23h22.92v9.49h-35.26v-51.19h35.33v9.53h-22.99v10.79h19.41v9.14z" fill="#1d1d1b"/><path d="m113.66 71.36c0-1.8-.64-3.21-1.92-4.22s-3.52-2.05-6.73-3.13-5.84-2.12-7.88-3.13c-6.63-3.26-9.95-7.73-9.95-13.43 0-2.84.83-5.34 2.48-7.51s3.99-3.85 7.01-5.06 6.42-1.81 10.2-1.81 6.98.66 9.9 1.97 5.19 3.18 6.8 5.61 2.43 5.2 2.43 8.31h-12.3c0-2.09-.64-3.7-1.92-4.85s-3.01-1.72-5.19-1.72-3.94.49-5.22 1.46-1.92 2.21-1.92 3.71c0 1.31.7 2.5 2.11 3.57s3.88 2.17 7.42 3.3c3.54 1.14 6.45 2.36 8.72 3.67 5.53 3.19 8.3 7.58 8.3 13.18 0 4.48-1.69 7.99-5.06 10.55-3.38 2.55-8 3.83-13.89 3.83-4.15 0-7.9-.74-11.27-2.23-3.36-1.49-5.89-3.53-7.59-6.12s-2.55-5.57-2.55-8.95h12.38c0 2.74.71 4.76 2.13 6.06s3.72 1.95 6.91 1.95c2.04 0 3.65-.44 4.83-1.32s1.78-2.11 1.78-3.71z" fill="#1d1d1b"/><path d="m172.51 43.3h-15.36v41.66h-12.34v-41.66h-15.08v-9.53h42.79v9.53z" fill="#1d1d1b"/><path d="m343.76 73.09c0-2.84-1-5.08-2.99-6.73s-5.64-3.22-10.93-4.71c-5.3-1.49-9.16-3.11-11.6-4.87-3.47-2.48-5.2-5.74-5.2-9.77s1.61-7.1 4.83-9.54c3.22-2.45 7.34-3.67 12.36-3.67 3.4 0 6.44.66 9.12 1.97s4.76 3.14 6.24 5.48 2.21 4.96 2.21 7.84h-4.36c0-3.5-1.2-6.32-3.59-8.45s-5.6-3.19-9.63-3.19-7.03.87-9.35 2.62-3.48 4.03-3.48 6.85c0 2.61 1.04 4.73 3.13 6.37s5.43 3.09 10.02 4.35 8.07 2.56 10.44 3.91 4.15 2.96 5.34 4.83c1.2 1.88 1.79 4.09 1.79 6.64 0 4.03-1.61 7.27-4.83 9.7-3.22 2.44-7.47 3.66-12.74 3.66-3.61 0-6.92-.65-9.93-1.93s-5.3-3.09-6.86-5.41-2.34-4.98-2.34-7.98h4.32c0 3.61 1.35 6.46 4.04 8.54 2.7 2.09 6.28 3.13 10.76 3.13 3.98 0 7.18-.88 9.6-2.64s3.62-4.09 3.62-7z" fill="#1d1d1b"/><path d="m395.27 62.86c0 4.71-.81 8.85-2.44 12.41s-3.96 6.31-6.98 8.23-6.52 2.88-10.48 2.88c-5.98 0-10.8-2.14-14.48-6.42s-5.52-10.05-5.52-17.31v-5.27c0-4.66.83-8.79 2.48-12.39s3.99-6.36 7.01-8.3 6.5-2.9 10.44-2.9 7.41.95 10.42 2.85 5.34 4.58 6.98 8.05 2.5 7.49 2.57 12.06v6.12zm-4.32-5.55c0-6.16-1.39-10.99-4.18-14.48s-6.61-5.24-11.46-5.24-8.55 1.75-11.37 5.26c-2.82 3.5-4.24 8.4-4.24 14.68v5.34c0 6.07 1.41 10.88 4.22 14.43s6.63 5.33 11.46 5.33 8.72-1.75 11.46-5.26c2.74-3.5 4.11-8.38 4.11-14.64v-5.41z" fill="#1d1d1b"/><path d="m433.06 71.3h-23.24l-5.27 14.38h-4.54l19.37-51.19h4.11l19.37 51.19h-4.5l-5.31-14.38zm-21.9-3.66h20.53l-10.27-27.88-10.27 27.88z" fill="#1d1d1b"/><path d="m454.72 64.83v20.85h-4.32v-51.19h17.44c5.32 0 9.52 1.36 12.6 4.08s4.62 6.46 4.62 11.21-1.48 8.51-4.45 11.13c-2.96 2.61-7.26 3.92-12.88 3.92zm0-3.66h13.11c4.2 0 7.39-1 9.6-2.99s3.3-4.78 3.3-8.35-1.1-6.37-3.29-8.47-5.3-3.17-9.33-3.22h-13.39z" fill="#1d1d1b"/><g fill="none" stroke="#1d1d1b" stroke-miterlimit="10" stroke-width="2"><path d="m276.67 102.84h1v-12"/><path d="m229.67 13.84h48v62"/><path d="m216.67 25.84v7"/><path d="m216.67 50.84v52h38"/><path d="m272.55 30.58c-.13-6.08-7.95-13.5-13.57-10.35-.05.65.27 1.16.65 1.64 16.74.99 9.08 22.79 10.67 33.85-.25 1.37.34 2.8 1.97 2.31.3-.18.42-.52.61-.8-.17-8.88.38-17.77-.33-26.66z"/><path d="m233.44 93.85c-14.52-1.79-2.77-35.8-9.43-35.71-.3.18-.42.52-.61.8 1.53 11.37-4.31 27.04 5.39 35.48 2.19 1.38 6.38 3.72 8.51 1.52.05-.65-.27-1.16-.65-1.64-1.07-.14-2.16-.18-3.2-.45z"/><path d="m229.45 13.48c0-6.89-5.59-12.48-12.48-12.48-16.32.07-16.32 24.89 0 24.96"/><path d="m216.97 25.96c6.89 0 12.48-5.59 12.48-12.48"/><path d="m276.54 102.69c-4.28-7.71-16.89-7.71-21.17 0"/><path d="m255.36 102.69c-5.24 7.89 1.02 19.35 10.59 19.06 9.57.28 15.83-11.18 10.59-19.06"/><path d="m216.97 33.1c-12.71-.92-12.71 18.77 0 17.85"/><path d="m216.97 50.95c10.64-.64 10.64-17.21 0-17.85"/><path d="m185.67 29.74c-.17 11.63 18.1 11.63 17.93 0 .17-11.63-18.1-11.63-17.93 0z"/><path d="m277.37 75.33c-5.81 3.02-5.81 12.44 0 15.46"/><path d="m277.37 90.79c17.61 7.44 17.6-22.91 0-15.46"/><path d="m284.04 102.69c-.17 11.63 18.1 11.63 17.93 0 .17-11.63-18.1-11.63-17.93 0z"/><path d="m229.25 115.48c-.17 11.63 18.1 11.63 17.93 0 .17-11.63-18.1-11.63-17.93 0z"/></g><text fill="#1d1d1b" font-family="Roboto-Medium, Roboto" font-size="35" font-weight="500" transform="matrix(.00108909 -1.03999943 .99999945 .0010472 258.98 92.73)"><tspan letter-spacing="0em" x="0" y="0">y</tspan><tspan letter-spacing="0em" x="16.78" y="0">our</tspan></text></svg>